M48
;GenerationSoftware,Autodesk,EAGLE,9.6.2*%
;CreationDate,2021-09-01T15:31:00Z*%
FMAT,2
ICI,OFF
METRIC,TZ,000.000
T6C0.800
T5C0.813
T4C0.914
T3C1.000
T2C1.300
T1C1.778
%
G90
M71
T1
X2730Y46270
X65730Y46270
X65730Y3270
X2730Y3270
T2
X19050Y45990
X14050Y45990
X20430Y2540
X34480Y2540
X39480Y2540
X15430Y2540
T3
X51070Y11985
X53610Y11985
X56150Y11985
X58690Y11985
T4
X51000Y5570
X51000Y3030
T5
X31940Y36830
X34480Y36830
X34480Y44450
X31940Y44450
X37020Y36830
X21590Y36830
X11430Y36830
X37020Y44450
T6
X26670Y30480
X24130Y30480
X21590Y30480
X8890Y15240
X16510Y30480
X13970Y30480
X11430Y30480
X8890Y30480
X6350Y30480
X3810Y30480
X3810Y15240
X6350Y15240
X11430Y15240
X13970Y15240
X16510Y15240
X19050Y15240
X21590Y15240
X24130Y15240
X26670Y15240
X29210Y15240
X31750Y15240
X34290Y15240
X36830Y15240
X19050Y30480
X39370Y15240
X39370Y30480
X36830Y30480
X34290Y30480
X31750Y30480
X29210Y30480
M30