G04 EAGLE Gerber RS-274X export*
G75*
%MOMM*%
%FSLAX34Y34*%
%LPD*%
%IN*%
%IPPOS*%
%AMOC8*
5,1,8,0,0,1.08239X$1,22.5*%
G01*
%ADD10C,0.254000*%


D10*
X0Y0D02*
X690000Y0D01*
X690000Y490000D01*
X0Y490000D01*
X0Y0D01*
X36190Y462312D02*
X36122Y461539D01*
X35988Y460774D01*
X35787Y460024D01*
X35521Y459295D01*
X35193Y458591D01*
X34805Y457919D01*
X34360Y457283D01*
X33861Y456688D01*
X33312Y456139D01*
X32717Y455640D01*
X32081Y455195D01*
X31409Y454807D01*
X30705Y454479D01*
X29976Y454213D01*
X29226Y454012D01*
X28461Y453878D01*
X27688Y453810D01*
X26912Y453810D01*
X26139Y453878D01*
X25374Y454012D01*
X24624Y454213D01*
X23895Y454479D01*
X23191Y454807D01*
X22519Y455195D01*
X21883Y455640D01*
X21288Y456139D01*
X20739Y456688D01*
X20240Y457283D01*
X19795Y457919D01*
X19407Y458591D01*
X19079Y459295D01*
X18813Y460024D01*
X18612Y460774D01*
X18478Y461539D01*
X18410Y462312D01*
X18410Y463088D01*
X18478Y463861D01*
X18612Y464626D01*
X18813Y465376D01*
X19079Y466105D01*
X19407Y466809D01*
X19795Y467481D01*
X20240Y468117D01*
X20739Y468712D01*
X21288Y469261D01*
X21883Y469760D01*
X22519Y470205D01*
X23191Y470593D01*
X23895Y470921D01*
X24624Y471187D01*
X25374Y471388D01*
X26139Y471522D01*
X26912Y471590D01*
X27688Y471590D01*
X28461Y471522D01*
X29226Y471388D01*
X29976Y471187D01*
X30705Y470921D01*
X31409Y470593D01*
X32081Y470205D01*
X32717Y469760D01*
X33312Y469261D01*
X33861Y468712D01*
X34360Y468117D01*
X34805Y467481D01*
X35193Y466809D01*
X35521Y466105D01*
X35787Y465376D01*
X35988Y464626D01*
X36122Y463861D01*
X36190Y463088D01*
X36190Y462312D01*
X666190Y462312D02*
X666122Y461539D01*
X665988Y460774D01*
X665787Y460024D01*
X665521Y459295D01*
X665193Y458591D01*
X664805Y457919D01*
X664360Y457283D01*
X663861Y456688D01*
X663312Y456139D01*
X662717Y455640D01*
X662081Y455195D01*
X661409Y454807D01*
X660705Y454479D01*
X659976Y454213D01*
X659226Y454012D01*
X658461Y453878D01*
X657688Y453810D01*
X656912Y453810D01*
X656139Y453878D01*
X655374Y454012D01*
X654624Y454213D01*
X653895Y454479D01*
X653191Y454807D01*
X652519Y455195D01*
X651883Y455640D01*
X651288Y456139D01*
X650739Y456688D01*
X650240Y457283D01*
X649795Y457919D01*
X649407Y458591D01*
X649079Y459295D01*
X648813Y460024D01*
X648612Y460774D01*
X648478Y461539D01*
X648410Y462312D01*
X648410Y463088D01*
X648478Y463861D01*
X648612Y464626D01*
X648813Y465376D01*
X649079Y466105D01*
X649407Y466809D01*
X649795Y467481D01*
X650240Y468117D01*
X650739Y468712D01*
X651288Y469261D01*
X651883Y469760D01*
X652519Y470205D01*
X653191Y470593D01*
X653895Y470921D01*
X654624Y471187D01*
X655374Y471388D01*
X656139Y471522D01*
X656912Y471590D01*
X657688Y471590D01*
X658461Y471522D01*
X659226Y471388D01*
X659976Y471187D01*
X660705Y470921D01*
X661409Y470593D01*
X662081Y470205D01*
X662717Y469760D01*
X663312Y469261D01*
X663861Y468712D01*
X664360Y468117D01*
X664805Y467481D01*
X665193Y466809D01*
X665521Y466105D01*
X665787Y465376D01*
X665988Y464626D01*
X666122Y463861D01*
X666190Y463088D01*
X666190Y462312D01*
X666190Y32312D02*
X666122Y31539D01*
X665988Y30774D01*
X665787Y30024D01*
X665521Y29295D01*
X665193Y28591D01*
X664805Y27919D01*
X664360Y27283D01*
X663861Y26688D01*
X663312Y26139D01*
X662717Y25640D01*
X662081Y25195D01*
X661409Y24807D01*
X660705Y24479D01*
X659976Y24213D01*
X659226Y24012D01*
X658461Y23878D01*
X657688Y23810D01*
X656912Y23810D01*
X656139Y23878D01*
X655374Y24012D01*
X654624Y24213D01*
X653895Y24479D01*
X653191Y24807D01*
X652519Y25195D01*
X651883Y25640D01*
X651288Y26139D01*
X650739Y26688D01*
X650240Y27283D01*
X649795Y27919D01*
X649407Y28591D01*
X649079Y29295D01*
X648813Y30024D01*
X648612Y30774D01*
X648478Y31539D01*
X648410Y32312D01*
X648410Y33088D01*
X648478Y33861D01*
X648612Y34626D01*
X648813Y35376D01*
X649079Y36105D01*
X649407Y36809D01*
X649795Y37481D01*
X650240Y38117D01*
X650739Y38712D01*
X651288Y39261D01*
X651883Y39760D01*
X652519Y40205D01*
X653191Y40593D01*
X653895Y40921D01*
X654624Y41187D01*
X655374Y41388D01*
X656139Y41522D01*
X656912Y41590D01*
X657688Y41590D01*
X658461Y41522D01*
X659226Y41388D01*
X659976Y41187D01*
X660705Y40921D01*
X661409Y40593D01*
X662081Y40205D01*
X662717Y39760D01*
X663312Y39261D01*
X663861Y38712D01*
X664360Y38117D01*
X664805Y37481D01*
X665193Y36809D01*
X665521Y36105D01*
X665787Y35376D01*
X665988Y34626D01*
X666122Y33861D01*
X666190Y33088D01*
X666190Y32312D01*
X36190Y32312D02*
X36122Y31539D01*
X35988Y30774D01*
X35787Y30024D01*
X35521Y29295D01*
X35193Y28591D01*
X34805Y27919D01*
X34360Y27283D01*
X33861Y26688D01*
X33312Y26139D01*
X32717Y25640D01*
X32081Y25195D01*
X31409Y24807D01*
X30705Y24479D01*
X29976Y24213D01*
X29226Y24012D01*
X28461Y23878D01*
X27688Y23810D01*
X26912Y23810D01*
X26139Y23878D01*
X25374Y24012D01*
X24624Y24213D01*
X23895Y24479D01*
X23191Y24807D01*
X22519Y25195D01*
X21883Y25640D01*
X21288Y26139D01*
X20739Y26688D01*
X20240Y27283D01*
X19795Y27919D01*
X19407Y28591D01*
X19079Y29295D01*
X18813Y30024D01*
X18612Y30774D01*
X18478Y31539D01*
X18410Y32312D01*
X18410Y33088D01*
X18478Y33861D01*
X18612Y34626D01*
X18813Y35376D01*
X19079Y36105D01*
X19407Y36809D01*
X19795Y37481D01*
X20240Y38117D01*
X20739Y38712D01*
X21288Y39261D01*
X21883Y39760D01*
X22519Y40205D01*
X23191Y40593D01*
X23895Y40921D01*
X24624Y41187D01*
X25374Y41388D01*
X26139Y41522D01*
X26912Y41590D01*
X27688Y41590D01*
X28461Y41522D01*
X29226Y41388D01*
X29976Y41187D01*
X30705Y40921D01*
X31409Y40593D01*
X32081Y40205D01*
X32717Y39760D01*
X33312Y39261D01*
X33861Y38712D01*
X34360Y38117D01*
X34805Y37481D01*
X35193Y36809D01*
X35521Y36105D01*
X35787Y35376D01*
X35988Y34626D01*
X36122Y33861D01*
X36190Y33088D01*
X36190Y32312D01*
M02*
